<?xml version="1.0" encoding="utf-8"?>
<!-- Generator: Adobe Illustrator 22.1.0, SVG Export Plug-In . SVG Version: 6.00 Build 0)  -->
<svg version="1.1" id="Layer_1" xmlns="http://www.w3.org/2000/svg" xmlns:xlink="http://www.w3.org/1999/xlink" x="0px" y="0px"
	 viewBox="0 0 200 200" style="enable-background:new 0 0 200 200;" xml:space="preserve">
<style type="text/css">
	.st0{fill:#41478A;}
</style>
<g>
	<path class="st0" d="M66.6,150.8c10.6-0.8,13-2.1,13-11.6V61.9c0-6.3-4.8-8.4-12-8.4H58c-23.4,0-37,12.5-37,29.2
		c0,13.4,8.3,20.8,15.8,20.8c4.5,0,6.4-2.1,6.4-5.6c0-4.3-3.1-5.6-3.1-11.7c0-8.3,6.1-13.2,13.2-13.2c10.1,0,14.7,8.7,14.7,16.8
		c0,14.7-11.9,25.6-28.7,25.6C22.2,115.4,9,103.6,9,82.7c0-25.6,21.3-40.4,49-40.4h63.9v6.9c-10.6,0.8-13,2-13,11.6v33.8l33.7-31.4
		c6.8-6.3,7.6-13-5.4-14v-6.9h45.2v6.9c-8.1,0.8-11.1,2.6-20.3,11.1l-25.1,23.1l40.3,57.4c5.3,7.8,10.1,9.4,13.9,10.1v6.9h-55.3
		v-6.9c8.7-0.8,11.9-3.1,6.3-11.4L115.9,103l-7.1,6.4v29.9c0,9.4,2.5,10.7,13,11.6v6.9H66.6V150.8z"/>
</g>
</svg>
