<svg xmlns="http://www.w3.org/2000/svg" xmlns:xlink="http://www.w3.org/1999/xlink" viewBox="0 0 922.03 920.64"><defs><style>.cls-1,.cls-4{fill:none;}.cls-2{clip-path:url(#clip-path);}.cls-3{fill:#41478a;}.cls-3,.cls-4{stroke:#f2928f;stroke-miterlimit:10;stroke-width:3px;}.cls-5{fill:#f2928f;}</style><clipPath id="clip-path"><rect class="cls-1" x="1013.62" width="922.03" height="920.64"/></clipPath></defs><title>deco</title><g id="Layer_1" data-name="Layer 1"><g class="cls-2"><circle class="cls-3" cx="1013.62" cy="-115.1" r="115.07"/><circle class="cls-3" cx="897.8" cy="-0.04" r="115.07"/><path class="cls-4" d="M898.36,115A115.07,115.07,0,0,1,1013.43,0"/><path class="cls-4" d="M898.36,115A190.14,190.14,0,0,1,999.85-53.23"/><path class="cls-4" d="M898.36,115A344.39,344.39,0,0,1,967.07-91.92"/><path class="cls-4" d="M898.36,115A896,896,0,0,1,927.25-111.3"/><path class="cls-4" d="M897.8,115A115.07,115.07,0,0,0,782.73,0"/><path class="cls-4" d="M897.8,115A190.13,190.13,0,0,0,796.3-53.23"/><path class="cls-4" d="M897.8,115A344.39,344.39,0,0,0,829.09-91.92"/><path class="cls-4" d="M897.8,115A895.5,895.5,0,0,0,868.9-111.3"/><circle class="cls-3" cx="1013.62" cy="115.07" r="115.07"/><path class="cls-4" d="M1013.62,230.13A115.06,115.06,0,0,0,898.55,115.07"/><path class="cls-4" d="M1013.62,230.13A190.13,190.13,0,0,0,912.12,61.87"/><circle class="cls-3" cx="897.8" cy="230.13" r="115.07"/><path class="cls-4" d="M898.36,345.2a115.07,115.07,0,0,1,115.07-115.07"/><path class="cls-4" d="M898.36,345.2A190.14,190.14,0,0,1,999.85,176.94"/><path class="cls-4" d="M898.36,345.2a344.39,344.39,0,0,1,68.71-206.95"/><path class="cls-4" d="M898.36,345.2a895.89,895.89,0,0,1,28.89-226.33"/><path class="cls-4" d="M897.8,345.2A115.07,115.07,0,0,0,782.73,230.13"/><path class="cls-4" d="M897.8,345.2A190.13,190.13,0,0,0,796.3,176.94"/><path class="cls-4" d="M897.8,345.2a344.39,344.39,0,0,0-68.71-206.95"/><path class="cls-4" d="M897.8,345.2a895.44,895.44,0,0,0-28.9-226.33"/><circle class="cls-3" cx="1013.62" cy="345.23" r="115.07"/><path class="cls-4" d="M1013.62,460.3A115.07,115.07,0,0,0,898.55,345.23"/><path class="cls-4" d="M1013.62,460.3A190.13,190.13,0,0,0,912.12,292"/><circle class="cls-3" cx="897.8" cy="460.3" r="115.07"/><path class="cls-4" d="M898.36,575.36A115.07,115.07,0,0,1,1013.43,460.3"/><path class="cls-4" d="M898.36,575.36A190.13,190.13,0,0,1,999.85,407.11"/><path class="cls-4" d="M898.36,575.36a344.38,344.38,0,0,1,68.71-206.94"/><path class="cls-4" d="M898.36,575.36A895.87,895.87,0,0,1,927.25,349"/><path class="cls-4" d="M897.8,575.36A115.07,115.07,0,0,0,782.73,460.3"/><path class="cls-4" d="M897.8,575.36A190.12,190.12,0,0,0,796.3,407.11"/><path class="cls-4" d="M897.8,575.36a344.38,344.38,0,0,0-68.71-206.94"/><path class="cls-4" d="M897.8,575.36A895.42,895.42,0,0,0,868.9,349"/><circle class="cls-3" cx="1013.62" cy="575.4" r="115.07"/><path class="cls-4" d="M1013.62,690.47A115.07,115.07,0,0,0,898.55,575.4"/><path class="cls-4" d="M1013.62,690.47a190.13,190.13,0,0,0-101.5-168.26"/><circle class="cls-3" cx="897.8" cy="690.47" r="115.07"/><path class="cls-4" d="M898.36,805.53a115.07,115.07,0,0,1,115.07-115.06"/><path class="cls-4" d="M898.36,805.53A190.12,190.12,0,0,1,999.85,637.28"/><path class="cls-4" d="M898.36,805.53a344.38,344.38,0,0,1,68.71-206.94"/><path class="cls-4" d="M898.36,805.53a895.87,895.87,0,0,1,28.89-226.32"/><path class="cls-4" d="M897.8,805.53A115.07,115.07,0,0,0,782.73,690.47"/><path class="cls-4" d="M897.8,805.53A190.11,190.11,0,0,0,796.3,637.28"/><path class="cls-4" d="M897.8,805.53a344.38,344.38,0,0,0-68.71-206.94"/><path class="cls-4" d="M897.8,805.53a895.42,895.42,0,0,0-28.9-226.32"/><circle class="cls-3" cx="1013.62" cy="805.57" r="115.07"/><path class="cls-4" d="M1013.62,920.64A115.07,115.07,0,0,0,898.55,805.57"/><path class="cls-4" d="M1013.62,920.64a190.13,190.13,0,0,0-101.5-168.26"/><circle class="cls-3" cx="897.8" cy="920.64" r="115.07"/><path class="cls-4" d="M898.36,1035.7a115.06,115.06,0,0,1,115.07-115.06"/><path class="cls-4" d="M898.36,1035.7A190.11,190.11,0,0,1,999.85,867.45"/><path class="cls-4" d="M898.36,1035.7a344.38,344.38,0,0,1,68.71-206.94"/><path class="cls-4" d="M898.36,1035.7a895.81,895.81,0,0,1,28.89-226.32"/><path class="cls-4" d="M897.8,1035.7A115.06,115.06,0,0,0,782.73,920.64"/><path class="cls-4" d="M897.8,1035.7A190.1,190.1,0,0,0,796.3,867.45"/><path class="cls-4" d="M897.8,1035.7a344.38,344.38,0,0,0-68.71-206.94"/><path class="cls-4" d="M897.8,1035.7a895.36,895.36,0,0,0-28.9-226.32"/></g></g><g id="Layer_2" data-name="Layer 2"><path class="cls-5" d="M922,856.74a894.77,894.77,0,0,0-26.34-161.46A113.22,113.22,0,0,1,922,692V626.57a894.77,894.77,0,0,0-26.34-161.46A113.76,113.76,0,0,1,922,461.85V396.41a894.73,894.73,0,0,0-26.34-161.47A113.76,113.76,0,0,1,922,231.68V166.24A894.48,894.48,0,0,0,895.69,4.78,113.22,113.22,0,0,1,922,1.51V0H903.71A117,117,0,0,0,813.6,73.71,188,188,0,0,1,848.1,0h-3.8a190.88,190.88,0,0,0-31.7,65.15A340.06,340.06,0,0,1,828.63,0h-3.17a342.7,342.7,0,0,0-14.52,56.37Q812.78,28.08,816.39,0h-3Q809,33.9,807.25,68.18,805.48,33.94,801.13,0h-3q3.6,28.05,5.45,56.38A342.55,342.55,0,0,0,789,0h-3.17a340.06,340.06,0,0,1,16,65.15A191.06,191.06,0,0,0,770.2,0h-3.8a188,188,0,0,1,34.24,72.59A117,117,0,0,0,715.43.85c-1.54-.32-3.08-.6-4.64-.85H673a116.93,116.93,0,0,0-90.1,73.71A188,188,0,0,1,617.41,0h-3.8A191.08,191.08,0,0,0,581.9,65.15,340.81,340.81,0,0,1,597.93,0h-3.17a343.56,343.56,0,0,0-14.52,56.38Q582.09,28.07,585.69,0h-3q-4.35,33.9-6.12,68.17Q574.78,33.93,570.44,0h-3q3.62,28.05,5.45,56.38A342.55,342.55,0,0,0,558.34,0h-3.17a340.83,340.83,0,0,1,16,65.15A191.08,191.08,0,0,0,539.5,0h-3.8a188,188,0,0,1,34.24,72.59A117,117,0,0,0,484.74.85C483.2.53,481.65.26,480.09,0H442.32a116.93,116.93,0,0,0-90.11,73.71A188,188,0,0,1,386.71,0h-3.8A191.08,191.08,0,0,0,351.2,65.15,340.83,340.83,0,0,1,367.24,0h-3.17a342.55,342.55,0,0,0-14.52,56.38Q351.38,28.07,355,0h-3q-4.35,33.9-6.11,68.18Q344.09,33.94,339.74,0h-3q3.62,28.05,5.46,56.38A344.57,344.57,0,0,0,327.65,0h-3.18a340.08,340.08,0,0,1,16,65.15A191.08,191.08,0,0,0,308.8,0H305a188.08,188.08,0,0,1,34.25,72.58A117,117,0,0,0,254,.85C252.5.53,251,.25,249.4,0H211.62a117,117,0,0,0-90.11,73.71A188.16,188.16,0,0,1,156,0h-3.8a190.88,190.88,0,0,0-31.7,65.15A340.06,340.06,0,0,1,136.54,0h-3.17a342.7,342.7,0,0,0-14.52,56.37Q120.7,28.08,124.3,0h-3q-4.35,33.9-6.12,68.18Q113.39,33.94,109,0h-3q3.6,28.05,5.45,56.38A342.55,342.55,0,0,0,97,0H93.78a340.06,340.06,0,0,1,16,65.15A191.06,191.06,0,0,0,78.11,0h-3.8a188,188,0,0,1,34.24,72.59A117,117,0,0,0,23.35.85C21.81.53,20.26.26,18.7,0H0V1.5A113.4,113.4,0,0,1,27.63,4.91,896.17,896.17,0,0,0,.28,183.28C.19,181.54.1,179.8,0,178.07v53.6a113.4,113.4,0,0,1,27.63,3.4A896.38,896.38,0,0,0,.28,413.45C.19,411.71.1,410,0,408.24v53.6a113.4,113.4,0,0,1,27.63,3.4A896.27,896.27,0,0,0,.28,643.62C.19,641.88.1,640.14,0,638.4V692a113.4,113.4,0,0,1,27.63,3.4A896.27,896.27,0,0,0,.28,873.79c-.09-1.74-.18-3.48-.28-5.22v52.07H18.47a115.32,115.32,0,0,0-17.14-1.48,112.79,112.79,0,0,1,12.28-49.88,189,189,0,0,1,60.67,51.36h3.8a191.91,191.91,0,0,0-63.08-54,114.37,114.37,0,0,1,30.69-36,343,343,0,0,1,48.07,90h3.18a345.91,345.91,0,0,0-48.85-91.8A113.45,113.45,0,0,1,84.88,811.1,889.08,889.08,0,0,1,106,920.64h3A891.53,891.53,0,0,0,87.78,810.35a113.58,113.58,0,0,1,54.72.13,893.1,893.1,0,0,0-21.22,110.16h3a889,889,0,0,1,21.09-109.4A113.54,113.54,0,0,1,182,829.11a345.89,345.89,0,0,0-48.65,91.53h3.17a343,343,0,0,1,47.87-89.72,114.54,114.54,0,0,1,30.46,35.93,192.1,192.1,0,0,0-62.64,53.79H156a189,189,0,0,1,60.23-51.12,112.88,112.88,0,0,1,12.15,49.64,116,116,0,0,0-16.57,1.48h37.31A115.18,115.18,0,0,0,232,919.16a112.78,112.78,0,0,1,12.27-49.88A188.9,188.9,0,0,1,305,920.64h3.8a191.87,191.87,0,0,0-63.07-54,114.37,114.37,0,0,1,30.69-36,343,343,0,0,1,48.07,90h3.17a345.59,345.59,0,0,0-48.84-91.8,113.4,113.4,0,0,1,36.78-17.74,889.11,889.11,0,0,1,21.14,109.54h3a893.38,893.38,0,0,0-21.26-110.29,113.58,113.58,0,0,1,54.72.13A891.6,891.6,0,0,0,352,920.64h3a889,889,0,0,1,21.1-109.4,113.54,113.54,0,0,1,36.63,17.87,345.6,345.6,0,0,0-48.65,91.53h3.17a342.75,342.75,0,0,1,47.87-89.72,114.5,114.5,0,0,1,30.45,35.93,192.06,192.06,0,0,0-62.63,53.79h3.8A188.9,188.9,0,0,1,447,869.52a112.88,112.88,0,0,1,12.15,49.64,116,116,0,0,0-16.57,1.48h37.31a115.2,115.2,0,0,0-17.14-1.48A112.79,112.79,0,0,1,475,869.28a188.9,188.9,0,0,1,60.67,51.36h3.8a192,192,0,0,0-63.07-54,114.37,114.37,0,0,1,30.69-36,343.25,343.25,0,0,1,48.07,90h3.17a346.17,346.17,0,0,0-48.84-91.8,113.4,113.4,0,0,1,36.78-17.74,889.11,889.11,0,0,1,21.14,109.54h3a889.68,889.68,0,0,0-21.26-110.29,113.62,113.62,0,0,1,54.73.13,891.62,891.62,0,0,0-21.23,110.16h3a889,889,0,0,1,21.1-109.4,113.39,113.39,0,0,1,36.62,17.87,346.18,346.18,0,0,0-48.65,91.53H598a342.75,342.75,0,0,1,47.87-89.72,114.5,114.5,0,0,1,30.45,35.93,192,192,0,0,0-62.63,53.79h3.8a189,189,0,0,1,60.22-51.12,112.75,112.75,0,0,1,12.16,49.64,116.11,116.11,0,0,0-16.58,1.48h37.32a115.32,115.32,0,0,0-17.14-1.48,112.92,112.92,0,0,1,12.27-49.88,188.93,188.93,0,0,1,60.68,51.36h3.8a191.91,191.91,0,0,0-63.08-54,114.37,114.37,0,0,1,30.69-36,343,343,0,0,1,48.07,90H789a345.91,345.91,0,0,0-48.85-91.8A113.45,113.45,0,0,1,777,811.1,889.08,889.08,0,0,1,798.1,920.64h3a893.38,893.38,0,0,0-21.26-110.29,113.58,113.58,0,0,1,54.72.13,893.1,893.1,0,0,0-21.22,110.16h3a889,889,0,0,1,21.09-109.4,113.54,113.54,0,0,1,36.63,17.87,345.89,345.89,0,0,0-48.65,91.53h3.17a343,343,0,0,1,47.87-89.72A114.54,114.54,0,0,1,907,866.85a192.1,192.1,0,0,0-62.64,53.79h3.8a189,189,0,0,1,60.23-51.12,112.88,112.88,0,0,1,12.15,49.64,116,116,0,0,0-16.57,1.48H922ZM69.55,715.86A114.28,114.28,0,0,1,100,751.79a191.34,191.34,0,0,0-94.37,119A340.78,340.78,0,0,1,69.55,715.86ZM1.33,689a112.79,112.79,0,0,1,12.28-49.88,188.32,188.32,0,0,1,94.94,124,117,117,0,0,0-85.2-71.73A115.81,115.81,0,0,0,1.33,689Zm68.22-203.3A114.39,114.39,0,0,1,100,521.62a191.34,191.34,0,0,0-94.37,119A340.78,340.78,0,0,1,69.55,485.69ZM1.33,458.82a112.82,112.82,0,0,1,12.28-49.88,188.34,188.34,0,0,1,94.94,124,117,117,0,0,0-85.2-71.74A116.63,116.63,0,0,0,1.33,458.82Zm68.22-203.3A114.39,114.39,0,0,1,100,291.45a191.34,191.34,0,0,0-94.37,119A340.78,340.78,0,0,1,69.55,255.52ZM1.33,228.65a112.82,112.82,0,0,1,12.28-49.88,188.34,188.34,0,0,1,94.94,124A117,117,0,0,0,23.35,231,116.63,116.63,0,0,0,1.33,228.65ZM69.55,25.35A114.39,114.39,0,0,1,100,61.28a191.34,191.34,0,0,0-94.37,119A340.78,340.78,0,0,1,69.55,25.35Zm848.17,154.9A191.37,191.37,0,0,0,822.91,61a114.45,114.45,0,0,1,30.69-36A340.75,340.75,0,0,1,917.72,180.25Zm0,230.17a191.37,191.37,0,0,0-94.81-119.21,114.45,114.45,0,0,1,30.69-36A340.75,340.75,0,0,1,917.72,410.42Zm0,230.17a191.37,191.37,0,0,0-94.81-119.21,114.45,114.45,0,0,1,30.69-36A340.75,340.75,0,0,1,917.72,640.59Zm0,230.17a191.37,191.37,0,0,0-94.81-119.21,114.45,114.45,0,0,1,30.69-36A340.7,340.7,0,0,1,917.72,870.76ZM101.39,754.46a112.85,112.85,0,0,1,12.16,49.63A116.74,116.74,0,0,0,7.67,874.89,188.33,188.33,0,0,1,101.39,754.46ZM15,636.45a114.23,114.23,0,0,1,30.69-36,340.66,340.66,0,0,1,64.12,155.18A191.35,191.35,0,0,0,15,636.45Zm86.39-112.16a112.85,112.85,0,0,1,12.16,49.63A116.74,116.74,0,0,0,7.67,644.72,188.36,188.36,0,0,1,101.39,524.29ZM15,406.28a114.23,114.23,0,0,1,30.69-36,340.66,340.66,0,0,1,64.12,155.18A191.35,191.35,0,0,0,15,406.28Zm86.39-112.16a112.88,112.88,0,0,1,12.16,49.63A116.75,116.75,0,0,0,7.67,414.55,188.36,188.36,0,0,1,101.39,294.12ZM15,176.11a114.34,114.34,0,0,1,30.69-36,340.7,340.7,0,0,1,64.12,155.18A191.35,191.35,0,0,0,15,176.11ZM101.39,64a112.88,112.88,0,0,1,12.16,49.63A116.75,116.75,0,0,0,7.67,184.38,188.36,188.36,0,0,1,101.39,64ZM916.71,188.81a116.76,116.76,0,0,0-107.47-75.23,112.78,112.78,0,0,1,12.28-49.87A188.3,188.3,0,0,1,916.71,188.81Zm0,230.17a116.75,116.75,0,0,0-107.47-75.23,112.75,112.75,0,0,1,12.28-49.87A188.3,188.3,0,0,1,916.71,419Zm0,230.17a116.75,116.75,0,0,0-107.47-75.23,112.75,112.75,0,0,1,12.28-49.87A188.27,188.27,0,0,1,916.71,649.15Zm0,230.17a116.75,116.75,0,0,0-107.47-75.23,112.82,112.82,0,0,1,12.28-49.88A188.31,188.31,0,0,1,916.71,879.32Zm-219-8.56a340.78,340.78,0,0,1,63.92-154.9,114.28,114.28,0,0,1,30.45,35.93A191.34,191.34,0,0,0,697.72,870.76Zm-230.7,0a340.89,340.89,0,0,1,63.92-154.9,114.28,114.28,0,0,1,30.45,35.93A191.34,191.34,0,0,0,467,870.76Zm-230.69,0a340.88,340.88,0,0,1,63.91-154.9,114.31,114.31,0,0,1,30.46,35.93A191.34,191.34,0,0,0,236.33,870.76ZM48.09,598.68a113.27,113.27,0,0,1,36.79-17.75,892.15,892.15,0,0,1,26.59,166A343.87,343.87,0,0,0,48.09,598.68Zm0-230.17a113.27,113.27,0,0,1,36.79-17.75,892.15,892.15,0,0,1,26.59,166A343.87,343.87,0,0,0,48.09,368.51Zm0-230.17a113.27,113.27,0,0,1,36.79-17.75,892.15,892.15,0,0,1,26.59,166A343.92,343.92,0,0,0,48.09,138.34Zm177.54,41.92A191.33,191.33,0,0,0,130.82,61a114.45,114.45,0,0,1,30.69-36A340.74,340.74,0,0,1,225.63,180.26Zm230.7,0A191.37,191.37,0,0,0,361.52,61a114.45,114.45,0,0,1,30.69-36A341,341,0,0,1,456.33,180.25Zm230.7,0A191.37,191.37,0,0,0,592.22,61a114.45,114.45,0,0,1,30.69-36A341,341,0,0,1,687,180.26Zm233.48,48.4A116.77,116.77,0,0,0,813.6,303.88,188.31,188.31,0,0,1,908.36,179,112.88,112.88,0,0,1,920.51,228.66Zm0,230.17A116.76,116.76,0,0,0,813.6,534.05a188.28,188.28,0,0,1,94.76-124.86A112.88,112.88,0,0,1,920.51,458.83Zm0,230.16A116.78,116.78,0,0,0,813.6,764.22a188.28,188.28,0,0,1,94.76-124.86A112.87,112.87,0,0,1,920.51,689ZM696.06,862a892.17,892.17,0,0,1,26.56-165.81,113,113,0,0,1,36.62,17.87A343.88,343.88,0,0,0,696.06,862ZM592.22,751.55a114.45,114.45,0,0,1,30.69-36A341,341,0,0,1,687,870.76,191.37,191.37,0,0,0,592.22,751.55ZM465.37,862a892.15,892.15,0,0,1,26.55-165.81,113.14,113.14,0,0,1,36.63,17.87A343.64,343.64,0,0,0,465.37,862ZM361.52,751.55a114.45,114.45,0,0,1,30.69-36,340.92,340.92,0,0,1,64.12,155.18A191.37,191.37,0,0,0,361.52,751.55ZM234.67,862a893,893,0,0,1,26.55-165.81,113.14,113.14,0,0,1,36.63,17.87A343.88,343.88,0,0,0,234.67,862ZM130.82,751.55a114.45,114.45,0,0,1,30.69-36,340.75,340.75,0,0,1,64.12,155.18A191.34,191.34,0,0,0,130.82,751.55ZM812.6,295.32a340.88,340.88,0,0,1,63.91-154.9A114.31,114.31,0,0,1,907,176.35,191.34,191.34,0,0,0,812.6,295.32Zm0,230.17a340.91,340.91,0,0,1,63.91-154.91A114.46,114.46,0,0,1,907,406.52,191.34,191.34,0,0,0,812.6,525.49Zm0,230.17a340.91,340.91,0,0,1,63.91-154.91A114.54,114.54,0,0,1,907,636.68,191.39,191.39,0,0,0,812.6,755.66ZM625.31,713.78A113,113,0,0,1,662.09,696a891.89,891.89,0,0,1,26.59,166A343.89,343.89,0,0,0,625.31,713.78Zm-230.7,0A113,113,0,0,1,431.39,696,892.73,892.73,0,0,1,458,862,344,344,0,0,0,394.61,713.78Zm-230.7,0A113,113,0,0,1,200.7,696a891.89,891.89,0,0,1,26.59,166A343.9,343.9,0,0,0,163.91,713.78Zm647-427.24a893,893,0,0,1,26.55-165.8,113.14,113.14,0,0,1,36.63,17.87A343.9,343.9,0,0,0,810.94,286.54Zm0,230.17a893,893,0,0,1,26.55-165.8,113.14,113.14,0,0,1,36.63,17.87A343.9,343.9,0,0,0,810.94,516.71Zm0,230.17a892.88,892.88,0,0,1,26.55-165.8,113.32,113.32,0,0,1,36.63,17.86A344,344,0,0,0,810.94,746.88ZM707.09,636.45a114.23,114.23,0,0,1,30.69-36A340.66,340.66,0,0,1,801.9,755.66,191.35,191.35,0,0,0,707.09,636.45Zm-230.69,0a114.23,114.23,0,0,1,30.69-36,340.87,340.87,0,0,1,64.12,155.18A191.35,191.35,0,0,0,476.4,636.45Zm-230.7,0a114.37,114.37,0,0,1,30.69-36,341,341,0,0,1,64.12,155.19A191.35,191.35,0,0,0,245.7,636.45Zm-61.28-35.7a114.54,114.54,0,0,1,30.46,35.93,191.39,191.39,0,0,0-94.37,119A340.91,340.91,0,0,1,184.42,600.75Zm0-230.17a114.46,114.46,0,0,1,30.46,35.94,191.34,191.34,0,0,0-94.37,119A340.91,340.91,0,0,1,184.42,370.58Zm0-230.16a114.31,114.31,0,0,1,30.46,35.93,191.34,191.34,0,0,0-94.37,119A340.88,340.88,0,0,1,184.42,140.42ZM740.18,598.68A113.27,113.27,0,0,1,777,580.93a892.15,892.15,0,0,1,26.59,166A343.87,343.87,0,0,0,740.18,598.68Zm-230.69,0a113.22,113.22,0,0,1,36.78-17.75,892.15,892.15,0,0,1,26.59,166A343.85,343.85,0,0,0,509.49,598.68Zm-230.7,0a113.22,113.22,0,0,1,36.78-17.75,893,893,0,0,1,26.6,166A344,344,0,0,0,278.79,598.68Zm-62.52,40.68A112.87,112.87,0,0,1,228.42,689a116.78,116.78,0,0,0-106.91,75.23A188.28,188.28,0,0,1,216.27,639.36Zm0-230.17a112.88,112.88,0,0,1,12.15,49.64,116.76,116.76,0,0,0-106.91,75.22A188.28,188.28,0,0,1,216.27,409.19Zm0-230.17a112.88,112.88,0,0,1,12.15,49.64,116.77,116.77,0,0,0-106.91,75.22A188.31,188.31,0,0,1,216.27,179Zm198.85-38.6a114.28,114.28,0,0,1,30.45,35.93,191.34,191.34,0,0,0-94.37,119A340.78,340.78,0,0,1,415.12,140.42Zm230.7,0a114.28,114.28,0,0,1,30.45,35.93,191.34,191.34,0,0,0-94.37,119A340.78,340.78,0,0,1,645.82,140.42ZM581.9,755.66a340.82,340.82,0,0,1,63.92-154.91,114.5,114.5,0,0,1,30.45,35.93A191.39,191.39,0,0,0,581.9,755.66Zm-230.7,0a340.82,340.82,0,0,1,63.92-154.91,114.5,114.5,0,0,1,30.45,35.93A191.39,191.39,0,0,0,351.2,755.66Zm-51-500.14a114.42,114.42,0,0,1,30.46,35.93,191.34,191.34,0,0,0-94.37,119A340.88,340.88,0,0,1,300.24,255.52Zm230.7,0a114.39,114.39,0,0,1,30.45,35.93,191.34,191.34,0,0,0-94.37,119A340.89,340.89,0,0,1,530.94,255.52Zm230.7,0a114.39,114.39,0,0,1,30.45,35.93,191.34,191.34,0,0,0-94.37,119A340.78,340.78,0,0,1,761.64,255.52ZM737.78,370.31A340.66,340.66,0,0,1,801.9,525.49a191.35,191.35,0,0,0-94.81-119.21A114.23,114.23,0,0,1,737.78,370.31ZM697.72,640.59a340.78,340.78,0,0,1,63.92-154.9,114.39,114.39,0,0,1,30.45,35.93A191.34,191.34,0,0,0,697.72,640.59ZM580.24,746.88a892.19,892.19,0,0,1,26.56-165.8,113.17,113.17,0,0,1,36.62,17.86A344,344,0,0,0,580.24,746.88ZM467,640.59a340.89,340.89,0,0,1,63.92-154.9,114.28,114.28,0,0,1,30.45,35.93A191.34,191.34,0,0,0,467,640.59ZM349.55,746.88a892.18,892.18,0,0,1,26.55-165.8A113.14,113.14,0,0,1,412.73,599,343.65,343.65,0,0,0,349.55,746.88ZM236.33,640.59a340.88,340.88,0,0,1,63.91-154.9,114.31,114.31,0,0,1,30.46,35.93A191.34,191.34,0,0,0,236.33,640.59ZM130.82,521.38a114.45,114.45,0,0,1,30.69-36,340.75,340.75,0,0,1,64.12,155.18A191.34,191.34,0,0,0,130.82,521.38Zm0-230.17a114.45,114.45,0,0,1,30.69-36,340.75,340.75,0,0,1,64.12,155.18A191.34,191.34,0,0,0,130.82,291.21ZM456.33,410.42a191.37,191.37,0,0,0-94.81-119.21,114.45,114.45,0,0,1,30.69-36A341,341,0,0,1,456.33,410.42Zm230.7,0a191.37,191.37,0,0,0-94.81-119.21,114.45,114.45,0,0,1,30.69-36A341,341,0,0,1,687,410.42Zm18.66-1.48a188.32,188.32,0,0,1,94.95,124,116.7,116.7,0,0,0-107.22-74.11A113,113,0,0,1,705.69,408.94Zm-9.63,222.88A892.17,892.17,0,0,1,722.62,466a113,113,0,0,1,36.62,17.87A344,344,0,0,0,696.06,631.82Zm-230.69,0A892.15,892.15,0,0,1,491.92,466a113.14,113.14,0,0,1,36.63,17.87A343.74,343.74,0,0,0,465.37,631.82Zm-230.7,0A893,893,0,0,1,261.22,466a113.14,113.14,0,0,1,36.63,17.87A344,344,0,0,0,234.67,631.82ZM163.91,483.61a113,113,0,0,1,36.79-17.74,891.89,891.89,0,0,1,26.59,166A343.9,343.9,0,0,0,163.91,483.61ZM455.32,419a116.76,116.76,0,0,0-107.47-75.23,112.74,112.74,0,0,1,12.27-49.87A188.28,188.28,0,0,1,455.32,419ZM686,419a116.76,116.76,0,0,0-107.48-75.23,112.75,112.75,0,0,1,12.28-49.87A188.31,188.31,0,0,1,686,419ZM230.7,461.84a113.32,113.32,0,0,1,27.62,3.4A896.15,896.15,0,0,0,231,643.61a896.76,896.76,0,0,0-27.38-178.5A113.68,113.68,0,0,1,230.7,461.84Zm1.33-3a112.82,112.82,0,0,1,12.27-49.88,188.33,188.33,0,0,1,94.95,124A116.72,116.72,0,0,0,232,458.82Zm224.3,181.77a191.37,191.37,0,0,0-94.81-119.21,114.45,114.45,0,0,1,30.69-36A341,341,0,0,1,456.33,640.59Zm-41.21-270a114.43,114.43,0,0,1,30.45,35.94,191.34,191.34,0,0,0-94.37,119A340.82,340.82,0,0,1,415.12,370.58ZM447,409.19a112.88,112.88,0,0,1,12.15,49.64,116.76,116.76,0,0,0-106.91,75.22A188.28,188.28,0,0,1,447,409.19Zm-34.24-40.41a343.65,343.65,0,0,0-63.18,147.93,892.18,892.18,0,0,1,26.55-165.8A113.14,113.14,0,0,1,412.73,368.78Zm-67.16-22a113.4,113.4,0,0,1,27.63,3.41,896.27,896.27,0,0,0-27.34,178.37A896.76,896.76,0,0,0,318.48,350,113.09,113.09,0,0,1,345.57,346.73Zm-30,4a893,893,0,0,1,26.6,166,344,344,0,0,0-63.38-148.2A113.22,113.22,0,0,1,315.57,350.76Zm-39.18,19.55a340.87,340.87,0,0,1,64.12,155.18A191.35,191.35,0,0,0,245.7,406.28,114.23,114.23,0,0,1,276.39,370.31Zm71.46,203.61A112.82,112.82,0,0,1,360.12,524a188.3,188.3,0,0,1,95.2,125.11A116.76,116.76,0,0,0,347.85,573.92Zm46.76-90.31a113,113,0,0,1,36.78-17.74,892.73,892.73,0,0,1,26.6,166A344,344,0,0,0,394.61,483.61Zm39.69-18.5a113.91,113.91,0,0,1,54.72.13,896.25,896.25,0,0,0-27.34,178.38A896.86,896.86,0,0,0,434.3,465.11Zm28.42-6.29A112.82,112.82,0,0,1,475,408.94a188.3,188.3,0,0,1,94.94,124,116.68,116.68,0,0,0-107.22-74.11ZM687,640.59a191.37,191.37,0,0,0-94.81-119.21,114.45,114.45,0,0,1,30.69-36A341,341,0,0,1,687,640.59Zm-41.21-270a114.43,114.43,0,0,1,30.45,35.94,191.34,191.34,0,0,0-94.37,119A340.87,340.87,0,0,1,645.82,370.58Zm31.84,38.61a112.75,112.75,0,0,1,12.16,49.64,116.75,116.75,0,0,0-106.91,75.22A188.27,188.27,0,0,1,677.66,409.19Zm-34.24-40.41a343.9,343.9,0,0,0-63.18,147.93,892.19,892.19,0,0,1,26.56-165.8A113,113,0,0,1,643.42,368.78Zm-67.15-22a113.4,113.4,0,0,1,27.63,3.41,896.17,896.17,0,0,0-27.35,178.37A895.31,895.31,0,0,0,549.17,350,113.17,113.17,0,0,1,576.27,346.73Zm-30,4a892.15,892.15,0,0,1,26.59,166,343.85,343.85,0,0,0-63.37-148.2A113.22,113.22,0,0,1,546.27,350.76Zm-39.18,19.55a340.87,340.87,0,0,1,64.12,155.18A191.35,191.35,0,0,0,476.4,406.28,114.23,114.23,0,0,1,507.09,370.31Zm71.45,203.61a112.75,112.75,0,0,1,12.28-49.87A188.31,188.31,0,0,1,686,649.15,116.76,116.76,0,0,0,578.54,573.92Zm46.77-90.31a113,113,0,0,1,36.78-17.74,891.89,891.89,0,0,1,26.59,166A343.89,343.89,0,0,0,625.31,483.61ZM665,465.11a113.95,113.95,0,0,1,54.73.13,896.17,896.17,0,0,0-27.35,178.37A895.31,895.31,0,0,0,665,465.11ZM805.64,343.75a116.75,116.75,0,0,0-105.88,70.8,188.36,188.36,0,0,1,93.72-120.43A112.88,112.88,0,0,1,805.64,343.75ZM625.31,253.44a113,113,0,0,1,36.78-17.74,891.89,891.89,0,0,1,26.59,166A343.89,343.89,0,0,0,625.31,253.44Zm-50.37,90.31a116.77,116.77,0,0,0-105.88,70.8,188.34,188.34,0,0,1,93.73-120.43A112.87,112.87,0,0,1,574.94,343.75ZM394.61,253.44a113,113,0,0,1,36.78-17.74,892.73,892.73,0,0,1,26.6,166A344,344,0,0,0,394.61,253.44Zm-50.37,90.31a116.73,116.73,0,0,0-105.87,70.8,188.33,188.33,0,0,1,93.72-120.43A112.87,112.87,0,0,1,344.24,343.75ZM163.91,253.44A113,113,0,0,1,200.7,235.7a891.89,891.89,0,0,1,26.59,166A343.9,343.9,0,0,0,163.91,253.44Zm-34.48,40.44A188.3,188.3,0,0,1,224.62,419a116.75,116.75,0,0,0-107.47-75.23A112.75,112.75,0,0,1,129.43,293.88Zm0,230.17a188.3,188.3,0,0,1,95.19,125.1,116.75,116.75,0,0,0-107.47-75.23A112.75,112.75,0,0,1,129.43,524.05Zm202.66.24a112.84,112.84,0,0,1,12.15,49.63,116.73,116.73,0,0,0-105.87,70.8A188.33,188.33,0,0,1,332.09,524.29Zm13.48,52.61a113.4,113.4,0,0,1,27.63,3.41,896.27,896.27,0,0,0-27.34,178.37,896.76,896.76,0,0,0-27.38-178.5A113.09,113.09,0,0,1,345.57,576.9Zm217.22-52.61a112.84,112.84,0,0,1,12.15,49.63,116.76,116.76,0,0,0-105.88,70.8A188.34,188.34,0,0,1,562.79,524.29Zm13.48,52.61a113.4,113.4,0,0,1,27.63,3.41,896.18,896.18,0,0,0-27.35,178.36,895.21,895.21,0,0,0-27.38-178.49A113.17,113.17,0,0,1,576.27,576.9Zm217.21-52.61a112.85,112.85,0,0,1,12.16,49.63,116.74,116.74,0,0,0-105.88,70.8A188.36,188.36,0,0,1,793.48,524.29Zm-53.3-155.78A113.27,113.27,0,0,1,777,350.76a892.15,892.15,0,0,1,26.59,166A343.87,343.87,0,0,0,740.18,368.51Zm19.06-114.8a344,344,0,0,0-63.18,147.94,892.17,892.17,0,0,1,26.56-165.81A113,113,0,0,1,759.24,253.71ZM692.37,413.44A895.31,895.31,0,0,0,665,234.94a113.95,113.95,0,0,1,54.73.13A896.17,896.17,0,0,0,692.37,413.44Zm-2.55-184.78a116.76,116.76,0,0,0-106.91,75.22A188.29,188.29,0,0,1,677.66,179,112.75,112.75,0,0,1,689.82,228.66ZM528.55,253.71a343.74,343.74,0,0,0-63.18,147.94,892.15,892.15,0,0,1,26.55-165.81A113.14,113.14,0,0,1,528.55,253.71ZM461.68,413.45A897,897,0,0,0,434.3,234.94a113.91,113.91,0,0,1,54.72.13A896.25,896.25,0,0,0,461.68,413.45Zm-2.56-184.79a116.77,116.77,0,0,0-106.91,75.22A188.31,188.31,0,0,1,447,179,112.88,112.88,0,0,1,459.12,228.66ZM297.85,253.71a344,344,0,0,0-63.18,147.94,893,893,0,0,1,26.55-165.81A113.14,113.14,0,0,1,297.85,253.71ZM231,413.44a896.76,896.76,0,0,0-27.38-178.5,113.91,113.91,0,0,1,54.72.13A896.15,896.15,0,0,0,231,413.44ZM447,639.36A112.87,112.87,0,0,1,459.12,689a116.78,116.78,0,0,0-106.91,75.23A188.28,188.28,0,0,1,447,639.36Zm230.69,0A112.75,112.75,0,0,1,689.82,689a116.77,116.77,0,0,0-106.91,75.23A188.27,188.27,0,0,1,677.66,639.36Zm102.21-59.18a113.58,113.58,0,0,1,54.72.13,896.15,896.15,0,0,0-27.34,178.37A896.76,896.76,0,0,0,779.87,580.18Zm0-230.17a113.58,113.58,0,0,1,54.72.13,896.27,896.27,0,0,0-27.34,178.37A896.76,896.76,0,0,0,779.87,350ZM643.42,138.61a343.9,343.9,0,0,0-63.18,147.93,892.19,892.19,0,0,1,26.56-165.8A113,113,0,0,1,643.42,138.61Zm-230.69,0a343.65,343.65,0,0,0-63.18,147.93,892.18,892.18,0,0,1,26.55-165.8A113.14,113.14,0,0,1,412.73,138.61Zm394.24-22a113.32,113.32,0,0,1,27.62,3.4,896.25,896.25,0,0,0-27.34,178.38,896.75,896.75,0,0,0-27.38-178.51A113.68,113.68,0,0,1,807,116.57Zm-30,4a892.15,892.15,0,0,1,26.59,166,343.92,343.92,0,0,0-63.38-148.2A113.27,113.27,0,0,1,777,120.59Zm-39.19,19.55A340.7,340.7,0,0,1,801.9,295.32a191.35,191.35,0,0,0-94.81-119.21A114.34,114.34,0,0,1,737.78,140.14Zm-32.09,38.63a188.32,188.32,0,0,1,94.95,124,116.7,116.7,0,0,0-107.22-74.11A113,113,0,0,1,705.69,178.77Zm-129.42-62.2A113.4,113.4,0,0,1,603.9,120a896.17,896.17,0,0,0-27.35,178.37,895.31,895.31,0,0,0-27.38-178.5A113.68,113.68,0,0,1,576.27,116.57Zm-30,4a892.15,892.15,0,0,1,26.59,166,343.9,343.9,0,0,0-63.37-148.2A113.22,113.22,0,0,1,546.27,120.59Zm-39.18,19.55a340.92,340.92,0,0,1,64.12,155.18A191.35,191.35,0,0,0,476.4,176.11,114.34,114.34,0,0,1,507.09,140.14ZM475,178.77a188.3,188.3,0,0,1,94.94,124,116.68,116.68,0,0,0-107.22-74.11A112.82,112.82,0,0,1,475,178.77Zm-129.43-62.2A113.4,113.4,0,0,1,373.2,120a896.25,896.25,0,0,0-27.34,178.38,896.75,896.75,0,0,0-27.38-178.51A113.59,113.59,0,0,1,345.57,116.57Zm-30,4a893,893,0,0,1,26.6,166,344,344,0,0,0-63.38-148.2A113.22,113.22,0,0,1,315.57,120.59Zm-39.18,19.55a340.92,340.92,0,0,1,64.12,155.18A191.35,191.35,0,0,0,245.7,176.11,114.23,114.23,0,0,1,276.39,140.14ZM244.3,178.77a188.33,188.33,0,0,1,94.95,124A116.72,116.72,0,0,0,232,228.65,112.82,112.82,0,0,1,244.3,178.77ZM182,138.61a343.9,343.9,0,0,0-63.18,147.93,893,893,0,0,1,26.55-165.8A113.14,113.14,0,0,1,182,138.61Zm0,230.17a343.9,343.9,0,0,0-63.18,147.93,893,893,0,0,1,26.55-165.8A113.14,113.14,0,0,1,182,368.78Zm0,230.16a344,344,0,0,0-63.18,147.94,892.88,892.88,0,0,1,26.55-165.8A113.32,113.32,0,0,1,182,598.94Zm21.57,96.34a113.91,113.91,0,0,1,54.72.13A896.15,896.15,0,0,0,231,873.78,896.76,896.76,0,0,0,203.6,695.28ZM232,689a112.78,112.78,0,0,1,12.27-49.88,188.33,188.33,0,0,1,94.95,124A117,117,0,0,0,254,691.36,115.6,115.6,0,0,0,232,689Zm202.27,6.29a113.91,113.91,0,0,1,54.72.13,896.25,896.25,0,0,0-27.34,178.38A896.75,896.75,0,0,0,434.3,695.28ZM462.72,689A112.79,112.79,0,0,1,475,639.11a188.31,188.31,0,0,1,94.94,124A116.69,116.69,0,0,0,462.72,689ZM665,695.28a113.95,113.95,0,0,1,54.73.13,896.17,896.17,0,0,0-27.35,178.37A895.31,895.31,0,0,0,665,695.28ZM693.42,689a112.92,112.92,0,0,1,12.27-49.88,188.3,188.3,0,0,1,94.95,124,117,117,0,0,0-85.21-71.73A115.62,115.62,0,0,0,693.42,689ZM114.88,116.57A113.32,113.32,0,0,1,142.5,120a896.25,896.25,0,0,0-27.34,178.38A896.75,896.75,0,0,0,87.78,119.84,113.68,113.68,0,0,1,114.88,116.57Zm0,230.16a113.32,113.32,0,0,1,27.62,3.41,896.27,896.27,0,0,0-27.34,178.37A896.76,896.76,0,0,0,87.78,350,113.17,113.17,0,0,1,114.88,346.73Zm0,230.17a113.32,113.32,0,0,1,27.62,3.41,896.15,896.15,0,0,0-27.34,178.37,896.76,896.76,0,0,0-27.38-178.5A113.17,113.17,0,0,1,114.88,576.9ZM686,188.81a116.78,116.78,0,0,0-107.48-75.23,112.78,112.78,0,0,1,12.28-49.87A188.31,188.31,0,0,1,686,188.81Zm-230.7,0a116.77,116.77,0,0,0-107.47-75.23,112.77,112.77,0,0,1,12.27-49.87A188.28,188.28,0,0,1,455.32,188.81Zm-230.7,0a116.76,116.76,0,0,0-107.47-75.23,112.78,112.78,0,0,1,12.28-49.87A188.3,188.3,0,0,1,224.62,188.81Zm-95.19,565.4a188.31,188.31,0,0,1,95.19,125.11,116.75,116.75,0,0,0-107.47-75.23A112.82,112.82,0,0,1,129.43,754.21Zm230.69,0a188.3,188.3,0,0,1,95.2,125.11,116.76,116.76,0,0,0-107.47-75.23A112.82,112.82,0,0,1,360.12,754.21Zm230.7,0A188.33,188.33,0,0,1,686,879.32a116.76,116.76,0,0,0-107.48-75.23A112.82,112.82,0,0,1,590.82,754.21ZM805.64,113.58a116.75,116.75,0,0,0-105.88,70.8A188.36,188.36,0,0,1,793.48,64,112.88,112.88,0,0,1,805.64,113.58ZM697.72,180.25a340.78,340.78,0,0,1,63.92-154.9,114.39,114.39,0,0,1,30.45,35.93A191.34,191.34,0,0,0,697.72,180.25Zm-1.66-8.77A892.17,892.17,0,0,1,722.62,5.67a113.39,113.39,0,0,1,36.62,17.87A344,344,0,0,0,696.06,171.48ZM625.31,23.27A113.2,113.2,0,0,1,662.09,5.53a892,892,0,0,1,26.59,166A343.89,343.89,0,0,0,625.31,23.27Zm-50.37,90.31a116.77,116.77,0,0,0-105.88,70.8A188.34,188.34,0,0,1,562.79,64,112.87,112.87,0,0,1,574.94,113.58ZM467,180.25a340.89,340.89,0,0,1,63.92-154.9,114.39,114.39,0,0,1,30.45,35.93A191.34,191.34,0,0,0,467,180.25Zm-1.65-8.77A892.15,892.15,0,0,1,491.92,5.67a113.54,113.54,0,0,1,36.63,17.87A343.74,343.74,0,0,0,465.37,171.48ZM394.61,23.27A113.2,113.2,0,0,1,431.39,5.53a892.86,892.86,0,0,1,26.6,166A344,344,0,0,0,394.61,23.27Zm-50.37,90.31a116.75,116.75,0,0,0-105.87,70.8A188.33,188.33,0,0,1,332.09,64,112.87,112.87,0,0,1,344.24,113.58ZM236.33,180.26A340.87,340.87,0,0,1,300.24,25.35,114.42,114.42,0,0,1,330.7,61.28,191.36,191.36,0,0,0,236.33,180.26Zm-1.66-8.78A893,893,0,0,1,261.22,5.67a113.54,113.54,0,0,1,36.63,17.87A344,344,0,0,0,234.67,171.48ZM163.91,23.27A113.25,113.25,0,0,1,200.7,5.53a892,892,0,0,1,26.59,166A343.9,343.9,0,0,0,163.91,23.27ZM332.09,754.46a112.84,112.84,0,0,1,12.15,49.63,116.73,116.73,0,0,0-105.87,70.8A188.3,188.3,0,0,1,332.09,754.46Zm230.7,0a112.84,112.84,0,0,1,12.15,49.63,116.76,116.76,0,0,0-105.88,70.8A188.32,188.32,0,0,1,562.79,754.46Zm230.69,0a112.85,112.85,0,0,1,12.16,49.63,116.74,116.74,0,0,0-105.88,70.8A188.33,188.33,0,0,1,793.48,754.46ZM692.37,183.27A895.1,895.1,0,0,0,665,4.78a113.62,113.62,0,0,1,54.73.13A896.07,896.07,0,0,0,692.37,183.27Zm-230.69,0A896.76,896.76,0,0,0,434.3,4.78,113.58,113.58,0,0,1,489,4.91,896.15,896.15,0,0,0,461.68,183.28Zm-230.7,0A896.55,896.55,0,0,0,203.6,4.78a113.58,113.58,0,0,1,54.72.13A896.06,896.06,0,0,0,231,183.27ZM919.38,862A343.9,343.9,0,0,0,856,713.78,113,113,0,0,1,892.79,696,891.89,891.89,0,0,1,919.38,862Zm0-230.17A343.9,343.9,0,0,0,856,483.61a113,113,0,0,1,36.79-17.74A891.89,891.89,0,0,1,919.38,631.82Zm0-230.17A343.9,343.9,0,0,0,856,253.44a113,113,0,0,1,36.79-17.74A891.89,891.89,0,0,1,919.38,401.65Zm0-230.17A343.9,343.9,0,0,0,856,23.27,113.25,113.25,0,0,1,892.79,5.53,892,892,0,0,1,919.38,171.48ZM30.53,5.67A113.39,113.39,0,0,1,67.15,23.54,344,344,0,0,0,4,171.48,892.17,892.17,0,0,1,30.53,5.67Zm0,230.17a113.19,113.19,0,0,1,36.62,17.87A344,344,0,0,0,4,401.65,892.17,892.17,0,0,1,30.53,235.84Zm0,230.17a113,113,0,0,1,36.62,17.87A344,344,0,0,0,4,631.82,892.17,892.17,0,0,1,30.53,466Zm0,230.17a113,113,0,0,1,36.62,17.87A343.93,343.93,0,0,0,4,862,892.17,892.17,0,0,1,30.53,696.18Z"/></g></svg>