<svg id="Layer_1" data-name="Layer 1" xmlns="http://www.w3.org/2000/svg" viewBox="0 0 2000 2000"><defs><style>.cls-1{fill:none;stroke:#fff;stroke-miterlimit:10;stroke-width:3px;}</style></defs><title>pattern2</title><line class="cls-1" x1="44.82" y1="-70.8" x2="-2278.66" y2="2252.68"/><line class="cls-1" x1="54.94" y1="-70.8" x2="-2268.54" y2="2252.68"/><line class="cls-1" x1="65.06" y1="-70.8" x2="-2258.42" y2="2252.68"/><line class="cls-1" x1="75.18" y1="-70.8" x2="-2248.3" y2="2252.68"/><line class="cls-1" x1="85.3" y1="-70.8" x2="-2238.18" y2="2252.68"/><line class="cls-1" x1="95.42" y1="-70.8" x2="-2228.07" y2="2252.68"/><line class="cls-1" x1="105.54" y1="-70.8" x2="-2217.95" y2="2252.68"/><line class="cls-1" x1="115.66" y1="-70.8" x2="-2207.83" y2="2252.68"/><line class="cls-1" x1="125.77" y1="-70.8" x2="-2197.71" y2="2252.68"/><line class="cls-1" x1="135.89" y1="-70.8" x2="-2187.59" y2="2252.68"/><line class="cls-1" x1="146.01" y1="-70.8" x2="-2177.47" y2="2252.68"/><line class="cls-1" x1="156.13" y1="-70.8" x2="-2167.35" y2="2252.68"/><line class="cls-1" x1="166.25" y1="-70.8" x2="-2157.23" y2="2252.68"/><line class="cls-1" x1="176.37" y1="-70.8" x2="-2147.11" y2="2252.68"/><line class="cls-1" x1="186.49" y1="-70.8" x2="-2136.99" y2="2252.68"/><line class="cls-1" x1="196.61" y1="-70.8" x2="-2126.87" y2="2252.68"/><line class="cls-1" x1="206.73" y1="-70.8" x2="-2116.75" y2="2252.68"/><line class="cls-1" x1="216.85" y1="-70.8" x2="-2106.64" y2="2252.68"/><line class="cls-1" x1="226.97" y1="-70.8" x2="-2096.52" y2="2252.68"/><line class="cls-1" x1="237.09" y1="-70.8" x2="-2086.4" y2="2252.68"/><line class="cls-1" x1="247.21" y1="-70.8" x2="-2076.28" y2="2252.68"/><line class="cls-1" x1="257.32" y1="-70.8" x2="-2066.16" y2="2252.68"/><line class="cls-1" x1="267.44" y1="-70.8" x2="-2056.04" y2="2252.68"/><line class="cls-1" x1="277.56" y1="-70.8" x2="-2045.92" y2="2252.68"/><line class="cls-1" x1="287.68" y1="-70.8" x2="-2035.8" y2="2252.68"/><line class="cls-1" x1="297.8" y1="-70.8" x2="-2025.68" y2="2252.68"/><line class="cls-1" x1="307.92" y1="-70.8" x2="-2015.56" y2="2252.68"/><line class="cls-1" x1="318.04" y1="-70.8" x2="-2005.44" y2="2252.68"/><line class="cls-1" x1="328.16" y1="-70.8" x2="-1995.32" y2="2252.68"/><line class="cls-1" x1="338.28" y1="-70.8" x2="-1985.2" y2="2252.68"/><line class="cls-1" x1="348.4" y1="-70.8" x2="-1975.09" y2="2252.68"/><line class="cls-1" x1="358.52" y1="-70.8" x2="-1964.97" y2="2252.68"/><line class="cls-1" x1="368.64" y1="-70.8" x2="-1954.85" y2="2252.68"/><line class="cls-1" x1="378.76" y1="-70.8" x2="-1944.73" y2="2252.68"/><line class="cls-1" x1="388.87" y1="-70.8" x2="-1934.61" y2="2252.68"/><line class="cls-1" x1="398.99" y1="-70.8" x2="-1924.49" y2="2252.68"/><line class="cls-1" x1="409.11" y1="-70.8" x2="-1914.37" y2="2252.68"/><line class="cls-1" x1="419.23" y1="-70.8" x2="-1904.25" y2="2252.68"/><line class="cls-1" x1="429.35" y1="-70.8" x2="-1894.13" y2="2252.68"/><line class="cls-1" x1="439.47" y1="-70.8" x2="-1884.01" y2="2252.68"/><line class="cls-1" x1="449.59" y1="-70.8" x2="-1873.89" y2="2252.68"/><line class="cls-1" x1="459.71" y1="-70.8" x2="-1863.77" y2="2252.68"/><line class="cls-1" x1="469.83" y1="-70.8" x2="-1853.65" y2="2252.68"/><line class="cls-1" x1="479.95" y1="-70.8" x2="-1843.54" y2="2252.68"/><line class="cls-1" x1="490.07" y1="-70.8" x2="-1833.42" y2="2252.68"/><line class="cls-1" x1="500.19" y1="-70.8" x2="-1823.3" y2="2252.68"/><line class="cls-1" x1="510.31" y1="-70.8" x2="-1813.18" y2="2252.68"/><line class="cls-1" x1="520.42" y1="-70.8" x2="-1803.06" y2="2252.68"/><line class="cls-1" x1="530.54" y1="-70.8" x2="-1792.94" y2="2252.68"/><line class="cls-1" x1="540.66" y1="-70.8" x2="-1782.82" y2="2252.68"/><line class="cls-1" x1="550.78" y1="-70.8" x2="-1772.7" y2="2252.68"/><line class="cls-1" x1="560.9" y1="-70.8" x2="-1762.58" y2="2252.68"/><line class="cls-1" x1="571.02" y1="-70.8" x2="-1752.46" y2="2252.68"/><line class="cls-1" x1="581.14" y1="-70.8" x2="-1742.34" y2="2252.68"/><line class="cls-1" x1="591.26" y1="-70.8" x2="-1732.22" y2="2252.68"/><line class="cls-1" x1="601.38" y1="-70.8" x2="-1722.1" y2="2252.68"/><line class="cls-1" x1="611.5" y1="-70.8" x2="-1711.99" y2="2252.68"/><line class="cls-1" x1="621.62" y1="-70.8" x2="-1701.87" y2="2252.68"/><line class="cls-1" x1="631.74" y1="-70.8" x2="-1691.75" y2="2252.68"/><line class="cls-1" x1="641.86" y1="-70.8" x2="-1681.63" y2="2252.68"/><line class="cls-1" x1="651.97" y1="-70.8" x2="-1671.51" y2="2252.68"/><line class="cls-1" x1="662.09" y1="-70.8" x2="-1661.39" y2="2252.68"/><line class="cls-1" x1="672.21" y1="-70.8" x2="-1651.27" y2="2252.68"/><line class="cls-1" x1="682.33" y1="-70.8" x2="-1641.15" y2="2252.68"/><line class="cls-1" x1="692.45" y1="-70.8" x2="-1631.03" y2="2252.68"/><line class="cls-1" x1="702.57" y1="-70.8" x2="-1620.91" y2="2252.68"/><line class="cls-1" x1="712.69" y1="-70.8" x2="-1610.79" y2="2252.68"/><line class="cls-1" x1="722.81" y1="-70.8" x2="-1600.67" y2="2252.68"/><line class="cls-1" x1="732.93" y1="-70.8" x2="-1590.55" y2="2252.68"/><line class="cls-1" x1="743.05" y1="-70.8" x2="-1580.44" y2="2252.68"/><line class="cls-1" x1="753.17" y1="-70.8" x2="-1570.32" y2="2252.68"/><line class="cls-1" x1="763.29" y1="-70.8" x2="-1560.2" y2="2252.68"/><line class="cls-1" x1="773.41" y1="-70.8" x2="-1550.08" y2="2252.68"/><line class="cls-1" x1="783.52" y1="-70.8" x2="-1539.96" y2="2252.68"/><line class="cls-1" x1="793.64" y1="-70.8" x2="-1529.84" y2="2252.68"/><line class="cls-1" x1="803.76" y1="-70.8" x2="-1519.72" y2="2252.68"/><line class="cls-1" x1="813.88" y1="-70.8" x2="-1509.6" y2="2252.68"/><line class="cls-1" x1="824" y1="-70.8" x2="-1499.48" y2="2252.68"/><line class="cls-1" x1="834.12" y1="-70.8" x2="-1489.36" y2="2252.68"/><line class="cls-1" x1="844.24" y1="-70.8" x2="-1479.24" y2="2252.68"/><line class="cls-1" x1="854.36" y1="-70.8" x2="-1469.12" y2="2252.68"/><line class="cls-1" x1="864.48" y1="-70.8" x2="-1459" y2="2252.68"/><line class="cls-1" x1="874.6" y1="-70.8" x2="-1448.89" y2="2252.68"/><line class="cls-1" x1="884.72" y1="-70.8" x2="-1438.77" y2="2252.68"/><line class="cls-1" x1="894.84" y1="-70.8" x2="-1428.65" y2="2252.68"/><line class="cls-1" x1="904.96" y1="-70.8" x2="-1418.53" y2="2252.68"/><line class="cls-1" x1="915.07" y1="-70.8" x2="-1408.41" y2="2252.68"/><line class="cls-1" x1="925.19" y1="-70.8" x2="-1398.29" y2="2252.68"/><line class="cls-1" x1="935.31" y1="-70.8" x2="-1388.17" y2="2252.68"/><line class="cls-1" x1="945.43" y1="-70.8" x2="-1378.05" y2="2252.68"/><line class="cls-1" x1="955.55" y1="-70.8" x2="-1367.93" y2="2252.68"/><line class="cls-1" x1="965.67" y1="-70.8" x2="-1357.81" y2="2252.68"/><line class="cls-1" x1="975.79" y1="-70.8" x2="-1347.69" y2="2252.68"/><line class="cls-1" x1="985.91" y1="-70.8" x2="-1337.57" y2="2252.68"/><line class="cls-1" x1="996.03" y1="-70.8" x2="-1327.45" y2="2252.68"/><line class="cls-1" x1="1006.15" y1="-70.8" x2="-1317.34" y2="2252.68"/><line class="cls-1" x1="1016.27" y1="-70.8" x2="-1307.22" y2="2252.68"/><line class="cls-1" x1="1026.39" y1="-70.8" x2="-1297.1" y2="2252.68"/><line class="cls-1" x1="1036.51" y1="-70.8" x2="-1286.98" y2="2252.68"/><line class="cls-1" x1="1046.62" y1="-70.8" x2="-1276.86" y2="2252.68"/><line class="cls-1" x1="1056.74" y1="-70.8" x2="-1266.74" y2="2252.68"/><line class="cls-1" x1="1066.86" y1="-70.8" x2="-1256.62" y2="2252.68"/><line class="cls-1" x1="1076.98" y1="-70.8" x2="-1246.5" y2="2252.68"/><line class="cls-1" x1="1087.1" y1="-70.8" x2="-1236.38" y2="2252.68"/><line class="cls-1" x1="1097.22" y1="-70.8" x2="-1226.26" y2="2252.68"/><line class="cls-1" x1="1107.34" y1="-70.8" x2="-1216.14" y2="2252.68"/><line class="cls-1" x1="1117.46" y1="-70.8" x2="-1206.02" y2="2252.68"/><line class="cls-1" x1="1127.58" y1="-70.8" x2="-1195.9" y2="2252.68"/><line class="cls-1" x1="1137.7" y1="-70.8" x2="-1185.79" y2="2252.68"/><line class="cls-1" x1="1147.82" y1="-70.8" x2="-1175.67" y2="2252.68"/><line class="cls-1" x1="1157.94" y1="-70.8" x2="-1165.55" y2="2252.68"/><line class="cls-1" x1="1168.06" y1="-70.8" x2="-1155.43" y2="2252.68"/><line class="cls-1" x1="1178.17" y1="-70.8" x2="-1145.31" y2="2252.68"/><line class="cls-1" x1="1188.29" y1="-70.8" x2="-1135.19" y2="2252.68"/><line class="cls-1" x1="1198.41" y1="-70.8" x2="-1125.07" y2="2252.68"/><line class="cls-1" x1="1208.53" y1="-70.8" x2="-1114.95" y2="2252.68"/><line class="cls-1" x1="1218.65" y1="-70.8" x2="-1104.83" y2="2252.68"/><line class="cls-1" x1="1228.77" y1="-70.8" x2="-1094.71" y2="2252.68"/><line class="cls-1" x1="1238.89" y1="-70.8" x2="-1084.59" y2="2252.68"/><line class="cls-1" x1="1249.01" y1="-70.8" x2="-1074.47" y2="2252.68"/><line class="cls-1" x1="1259.13" y1="-70.8" x2="-1064.35" y2="2252.68"/><line class="cls-1" x1="1269.25" y1="-70.8" x2="-1054.24" y2="2252.68"/><line class="cls-1" x1="1279.37" y1="-70.8" x2="-1044.12" y2="2252.68"/><line class="cls-1" x1="1289.49" y1="-70.8" x2="-1034" y2="2252.68"/><line class="cls-1" x1="1299.61" y1="-70.8" x2="-1023.88" y2="2252.68"/><line class="cls-1" x1="1309.72" y1="-70.8" x2="-1013.76" y2="2252.68"/><line class="cls-1" x1="1319.84" y1="-70.8" x2="-1003.64" y2="2252.68"/><line class="cls-1" x1="1329.96" y1="-70.8" x2="-993.52" y2="2252.68"/><line class="cls-1" x1="1340.08" y1="-70.8" x2="-983.4" y2="2252.68"/><line class="cls-1" x1="1350.2" y1="-70.8" x2="-973.28" y2="2252.68"/><line class="cls-1" x1="1360.32" y1="-70.8" x2="-963.16" y2="2252.68"/><line class="cls-1" x1="1370.44" y1="-70.8" x2="-953.04" y2="2252.68"/><line class="cls-1" x1="1380.56" y1="-70.8" x2="-942.92" y2="2252.68"/><line class="cls-1" x1="1390.68" y1="-70.8" x2="-932.8" y2="2252.68"/><line class="cls-1" x1="1400.8" y1="-70.8" x2="-922.69" y2="2252.68"/><line class="cls-1" x1="1410.92" y1="-70.8" x2="-912.57" y2="2252.68"/><line class="cls-1" x1="1421.04" y1="-70.8" x2="-902.45" y2="2252.68"/><line class="cls-1" x1="1431.16" y1="-70.8" x2="-892.33" y2="2252.68"/><line class="cls-1" x1="1441.27" y1="-70.8" x2="-882.21" y2="2252.68"/><line class="cls-1" x1="1451.39" y1="-70.8" x2="-872.09" y2="2252.68"/><line class="cls-1" x1="1461.51" y1="-70.8" x2="-861.97" y2="2252.68"/><line class="cls-1" x1="1471.63" y1="-70.8" x2="-851.85" y2="2252.68"/><line class="cls-1" x1="1481.75" y1="-70.8" x2="-841.73" y2="2252.68"/><line class="cls-1" x1="1491.87" y1="-70.8" x2="-831.61" y2="2252.68"/><line class="cls-1" x1="1501.99" y1="-70.8" x2="-821.49" y2="2252.68"/><line class="cls-1" x1="1512.11" y1="-70.8" x2="-811.37" y2="2252.68"/><line class="cls-1" x1="1522.23" y1="-70.8" x2="-801.25" y2="2252.68"/><line class="cls-1" x1="1532.35" y1="-70.8" x2="-791.14" y2="2252.68"/><line class="cls-1" x1="1542.47" y1="-70.8" x2="-781.02" y2="2252.68"/><line class="cls-1" x1="1552.59" y1="-70.8" x2="-770.9" y2="2252.68"/><line class="cls-1" x1="1562.71" y1="-70.8" x2="-760.78" y2="2252.68"/><line class="cls-1" x1="1572.82" y1="-70.8" x2="-750.66" y2="2252.68"/><line class="cls-1" x1="1582.94" y1="-70.8" x2="-740.54" y2="2252.68"/><line class="cls-1" x1="1593.06" y1="-70.8" x2="-730.42" y2="2252.68"/><line class="cls-1" x1="1603.18" y1="-70.8" x2="-720.3" y2="2252.68"/><line class="cls-1" x1="1613.3" y1="-70.8" x2="-710.18" y2="2252.68"/><line class="cls-1" x1="1623.42" y1="-70.8" x2="-700.06" y2="2252.68"/><line class="cls-1" x1="1633.54" y1="-70.8" x2="-689.94" y2="2252.68"/><line class="cls-1" x1="1643.66" y1="-70.8" x2="-679.82" y2="2252.68"/><line class="cls-1" x1="1653.78" y1="-70.8" x2="-669.7" y2="2252.68"/><line class="cls-1" x1="1663.9" y1="-70.8" x2="-659.59" y2="2252.68"/><line class="cls-1" x1="1674.02" y1="-70.8" x2="-649.47" y2="2252.68"/><line class="cls-1" x1="1684.14" y1="-70.8" x2="-639.35" y2="2252.68"/><line class="cls-1" x1="1694.26" y1="-70.8" x2="-629.23" y2="2252.68"/><line class="cls-1" x1="1704.37" y1="-70.8" x2="-619.11" y2="2252.68"/><line class="cls-1" x1="1714.49" y1="-70.8" x2="-608.99" y2="2252.68"/><line class="cls-1" x1="1724.61" y1="-70.8" x2="-598.87" y2="2252.68"/><line class="cls-1" x1="1734.73" y1="-70.8" x2="-588.75" y2="2252.68"/><line class="cls-1" x1="1744.85" y1="-70.8" x2="-578.63" y2="2252.68"/><line class="cls-1" x1="1754.97" y1="-70.8" x2="-568.51" y2="2252.68"/><line class="cls-1" x1="1765.09" y1="-70.8" x2="-558.39" y2="2252.68"/><line class="cls-1" x1="1775.21" y1="-70.8" x2="-548.27" y2="2252.68"/><line class="cls-1" x1="1785.33" y1="-70.8" x2="-538.15" y2="2252.68"/><line class="cls-1" x1="1795.45" y1="-70.8" x2="-528.04" y2="2252.68"/><line class="cls-1" x1="1805.57" y1="-70.8" x2="-517.92" y2="2252.68"/><line class="cls-1" x1="1815.69" y1="-70.8" x2="-507.8" y2="2252.68"/><line class="cls-1" x1="1825.81" y1="-70.8" x2="-497.68" y2="2252.68"/><line class="cls-1" x1="1835.92" y1="-70.8" x2="-487.56" y2="2252.68"/><line class="cls-1" x1="1846.04" y1="-70.8" x2="-477.44" y2="2252.68"/><line class="cls-1" x1="1856.16" y1="-70.8" x2="-467.32" y2="2252.68"/><line class="cls-1" x1="1866.28" y1="-70.8" x2="-457.2" y2="2252.68"/><line class="cls-1" x1="1876.4" y1="-70.8" x2="-447.08" y2="2252.68"/><line class="cls-1" x1="1886.52" y1="-70.8" x2="-436.96" y2="2252.68"/><line class="cls-1" x1="1896.64" y1="-70.8" x2="-426.84" y2="2252.68"/><line class="cls-1" x1="1906.76" y1="-70.8" x2="-416.72" y2="2252.68"/><line class="cls-1" x1="1916.88" y1="-70.8" x2="-406.6" y2="2252.68"/><line class="cls-1" x1="1927" y1="-70.8" x2="-396.49" y2="2252.68"/><line class="cls-1" x1="1937.12" y1="-70.8" x2="-386.37" y2="2252.68"/><line class="cls-1" x1="1947.24" y1="-70.8" x2="-376.25" y2="2252.68"/><line class="cls-1" x1="1957.36" y1="-70.8" x2="-366.13" y2="2252.68"/><line class="cls-1" x1="1967.47" y1="-70.8" x2="-356.01" y2="2252.68"/><line class="cls-1" x1="1977.59" y1="-70.8" x2="-345.89" y2="2252.68"/><line class="cls-1" x1="1987.71" y1="-70.8" x2="-335.77" y2="2252.68"/><line class="cls-1" x1="1997.83" y1="-70.8" x2="-325.65" y2="2252.68"/><line class="cls-1" x1="2007.95" y1="-70.8" x2="-315.53" y2="2252.68"/><line class="cls-1" x1="2018.07" y1="-70.8" x2="-305.41" y2="2252.68"/><line class="cls-1" x1="2028.19" y1="-70.8" x2="-295.29" y2="2252.68"/><line class="cls-1" x1="2038.31" y1="-70.8" x2="-285.17" y2="2252.68"/><line class="cls-1" x1="2048.43" y1="-70.8" x2="-275.05" y2="2252.68"/><line class="cls-1" x1="2058.55" y1="-70.8" x2="-264.94" y2="2252.68"/><line class="cls-1" x1="2068.67" y1="-70.8" x2="-254.82" y2="2252.68"/><line class="cls-1" x1="2078.79" y1="-70.8" x2="-244.7" y2="2252.68"/><line class="cls-1" x1="2088.91" y1="-70.8" x2="-234.58" y2="2252.68"/><line class="cls-1" x1="2099.02" y1="-70.8" x2="-224.46" y2="2252.68"/><line class="cls-1" x1="2109.14" y1="-70.8" x2="-214.34" y2="2252.68"/><line class="cls-1" x1="2119.26" y1="-70.8" x2="-204.22" y2="2252.68"/><line class="cls-1" x1="2129.38" y1="-70.8" x2="-194.1" y2="2252.68"/><line class="cls-1" x1="2139.5" y1="-70.8" x2="-183.98" y2="2252.68"/><line class="cls-1" x1="2149.62" y1="-70.8" x2="-173.86" y2="2252.68"/><line class="cls-1" x1="2159.74" y1="-70.8" x2="-163.74" y2="2252.68"/><line class="cls-1" x1="2169.86" y1="-70.8" x2="-153.62" y2="2252.68"/><line class="cls-1" x1="2179.98" y1="-70.8" x2="-143.5" y2="2252.68"/><line class="cls-1" x1="2190.1" y1="-70.8" x2="-133.39" y2="2252.68"/><line class="cls-1" x1="2200.22" y1="-70.8" x2="-123.27" y2="2252.68"/><line class="cls-1" x1="2210.34" y1="-70.8" x2="-113.15" y2="2252.68"/><line class="cls-1" x1="2220.46" y1="-70.8" x2="-103.03" y2="2252.68"/><line class="cls-1" x1="2230.57" y1="-70.8" x2="-92.91" y2="2252.68"/><line class="cls-1" x1="2240.69" y1="-70.8" x2="-82.79" y2="2252.68"/><line class="cls-1" x1="2250.81" y1="-70.8" x2="-72.67" y2="2252.68"/><line class="cls-1" x1="2260.93" y1="-70.8" x2="-62.55" y2="2252.68"/><line class="cls-1" x1="2271.05" y1="-70.8" x2="-52.43" y2="2252.68"/><line class="cls-1" x1="2281.17" y1="-70.8" x2="-42.31" y2="2252.68"/><line class="cls-1" x1="2291.29" y1="-70.8" x2="-32.19" y2="2252.68"/><line class="cls-1" x1="2301.41" y1="-70.8" x2="-22.07" y2="2252.68"/><line class="cls-1" x1="2311.53" y1="-70.8" x2="-11.95" y2="2252.68"/><line class="cls-1" x1="2321.65" y1="-70.8" x2="-1.84" y2="2252.68"/><line class="cls-1" x1="2331.77" y1="-70.8" x2="8.28" y2="2252.68"/><line class="cls-1" x1="2341.89" y1="-70.8" x2="18.4" y2="2252.68"/><line class="cls-1" x1="2352.01" y1="-70.8" x2="28.52" y2="2252.68"/><line class="cls-1" x1="2362.12" y1="-70.8" x2="38.64" y2="2252.68"/><line class="cls-1" x1="2372.24" y1="-70.8" x2="48.76" y2="2252.68"/><line class="cls-1" x1="2382.36" y1="-70.8" x2="58.88" y2="2252.68"/><line class="cls-1" x1="2392.48" y1="-70.8" x2="69" y2="2252.68"/><line class="cls-1" x1="2402.6" y1="-70.8" x2="79.12" y2="2252.68"/><line class="cls-1" x1="2412.72" y1="-70.8" x2="89.24" y2="2252.68"/><line class="cls-1" x1="2422.84" y1="-70.8" x2="99.36" y2="2252.68"/><line class="cls-1" x1="2432.96" y1="-70.8" x2="109.48" y2="2252.68"/><line class="cls-1" x1="2443.08" y1="-70.8" x2="119.6" y2="2252.68"/><line class="cls-1" x1="2453.2" y1="-70.8" x2="129.71" y2="2252.68"/><line class="cls-1" x1="2463.32" y1="-70.8" x2="139.83" y2="2252.68"/><line class="cls-1" x1="2473.44" y1="-70.8" x2="149.95" y2="2252.68"/><line class="cls-1" x1="2483.56" y1="-70.8" x2="160.07" y2="2252.68"/><line class="cls-1" x1="2493.67" y1="-70.8" x2="170.19" y2="2252.68"/><line class="cls-1" x1="2503.79" y1="-70.8" x2="180.31" y2="2252.68"/><line class="cls-1" x1="2513.91" y1="-70.8" x2="190.43" y2="2252.68"/><line class="cls-1" x1="2524.03" y1="-70.8" x2="200.55" y2="2252.68"/><line class="cls-1" x1="2534.15" y1="-70.8" x2="210.67" y2="2252.68"/><line class="cls-1" x1="2544.27" y1="-70.8" x2="220.79" y2="2252.68"/><line class="cls-1" x1="2554.39" y1="-70.8" x2="230.91" y2="2252.68"/><line class="cls-1" x1="2564.51" y1="-70.8" x2="241.03" y2="2252.68"/><line class="cls-1" x1="2574.63" y1="-70.8" x2="251.15" y2="2252.68"/><line class="cls-1" x1="2584.75" y1="-70.8" x2="261.26" y2="2252.68"/><line class="cls-1" x1="2594.87" y1="-70.8" x2="271.38" y2="2252.68"/><line class="cls-1" x1="2604.99" y1="-70.8" x2="281.5" y2="2252.68"/><line class="cls-1" x1="2615.11" y1="-70.8" x2="291.62" y2="2252.68"/><line class="cls-1" x1="2625.22" y1="-70.8" x2="301.74" y2="2252.68"/><line class="cls-1" x1="2635.34" y1="-70.8" x2="311.86" y2="2252.68"/><line class="cls-1" x1="2645.46" y1="-70.8" x2="321.98" y2="2252.68"/><line class="cls-1" x1="2655.58" y1="-70.8" x2="332.1" y2="2252.68"/><line class="cls-1" x1="2665.7" y1="-70.8" x2="342.22" y2="2252.68"/><line class="cls-1" x1="2675.82" y1="-70.8" x2="352.34" y2="2252.68"/><line class="cls-1" x1="2685.94" y1="-70.8" x2="362.46" y2="2252.68"/><line class="cls-1" x1="2696.06" y1="-70.8" x2="372.58" y2="2252.68"/><line class="cls-1" x1="2706.18" y1="-70.8" x2="382.7" y2="2252.68"/><line class="cls-1" x1="2716.3" y1="-70.8" x2="392.81" y2="2252.68"/><line class="cls-1" x1="2726.42" y1="-70.8" x2="402.93" y2="2252.68"/><line class="cls-1" x1="2736.54" y1="-70.8" x2="413.05" y2="2252.68"/><line class="cls-1" x1="2746.66" y1="-70.8" x2="423.17" y2="2252.68"/><line class="cls-1" x1="2756.77" y1="-70.8" x2="433.29" y2="2252.68"/><line class="cls-1" x1="2766.89" y1="-70.8" x2="443.41" y2="2252.68"/><line class="cls-1" x1="2777.01" y1="-70.8" x2="453.53" y2="2252.68"/><line class="cls-1" x1="2787.13" y1="-70.8" x2="463.65" y2="2252.68"/><line class="cls-1" x1="2797.25" y1="-70.8" x2="473.77" y2="2252.68"/><line class="cls-1" x1="2807.37" y1="-70.8" x2="483.89" y2="2252.68"/><line class="cls-1" x1="2817.49" y1="-70.8" x2="494.01" y2="2252.68"/><line class="cls-1" x1="2827.61" y1="-70.8" x2="504.13" y2="2252.68"/><line class="cls-1" x1="2837.73" y1="-70.8" x2="514.25" y2="2252.68"/><line class="cls-1" x1="2847.85" y1="-70.8" x2="524.36" y2="2252.68"/><line class="cls-1" x1="2857.97" y1="-70.8" x2="534.48" y2="2252.68"/><line class="cls-1" x1="2868.09" y1="-70.8" x2="544.6" y2="2252.68"/><line class="cls-1" x1="2878.21" y1="-70.8" x2="554.72" y2="2252.68"/><line class="cls-1" x1="2888.32" y1="-70.8" x2="564.84" y2="2252.68"/><line class="cls-1" x1="2898.44" y1="-70.8" x2="574.96" y2="2252.68"/><line class="cls-1" x1="2908.56" y1="-70.8" x2="585.08" y2="2252.68"/><line class="cls-1" x1="2918.68" y1="-70.8" x2="595.2" y2="2252.68"/><line class="cls-1" x1="2928.8" y1="-70.8" x2="605.32" y2="2252.68"/><line class="cls-1" x1="2938.92" y1="-70.8" x2="615.44" y2="2252.68"/><line class="cls-1" x1="2949.04" y1="-70.8" x2="625.56" y2="2252.68"/><line class="cls-1" x1="2959.16" y1="-70.8" x2="635.68" y2="2252.68"/><line class="cls-1" x1="2969.28" y1="-70.8" x2="645.8" y2="2252.68"/><line class="cls-1" x1="2979.4" y1="-70.8" x2="655.91" y2="2252.68"/><line class="cls-1" x1="2989.52" y1="-70.8" x2="666.03" y2="2252.68"/><line class="cls-1" x1="2999.64" y1="-70.8" x2="676.15" y2="2252.68"/><line class="cls-1" x1="3009.76" y1="-70.8" x2="686.27" y2="2252.68"/><line class="cls-1" x1="3019.87" y1="-70.8" x2="696.39" y2="2252.68"/><line class="cls-1" x1="3029.99" y1="-70.8" x2="706.51" y2="2252.68"/><line class="cls-1" x1="3040.11" y1="-70.8" x2="716.63" y2="2252.68"/><line class="cls-1" x1="3050.23" y1="-70.8" x2="726.75" y2="2252.68"/><line class="cls-1" x1="3060.35" y1="-70.8" x2="736.87" y2="2252.68"/><line class="cls-1" x1="3070.47" y1="-70.8" x2="746.99" y2="2252.68"/><line class="cls-1" x1="3080.59" y1="-70.8" x2="757.11" y2="2252.68"/><line class="cls-1" x1="3090.71" y1="-70.8" x2="767.23" y2="2252.68"/><line class="cls-1" x1="3100.83" y1="-70.8" x2="777.35" y2="2252.68"/><line class="cls-1" x1="3110.95" y1="-70.8" x2="787.46" y2="2252.68"/><line class="cls-1" x1="3121.07" y1="-70.8" x2="797.58" y2="2252.68"/><line class="cls-1" x1="3131.19" y1="-70.8" x2="807.7" y2="2252.68"/><line class="cls-1" x1="3141.31" y1="-70.8" x2="817.82" y2="2252.68"/><line class="cls-1" x1="3151.42" y1="-70.8" x2="827.94" y2="2252.68"/><line class="cls-1" x1="3161.54" y1="-70.8" x2="838.06" y2="2252.68"/><line class="cls-1" x1="3171.66" y1="-70.8" x2="848.18" y2="2252.68"/><line class="cls-1" x1="3181.78" y1="-70.8" x2="858.3" y2="2252.68"/><line class="cls-1" x1="3191.9" y1="-70.8" x2="868.42" y2="2252.68"/><line class="cls-1" x1="3202.02" y1="-70.8" x2="878.54" y2="2252.68"/><line class="cls-1" x1="3212.14" y1="-70.8" x2="888.66" y2="2252.68"/><line class="cls-1" x1="3222.26" y1="-70.8" x2="898.78" y2="2252.68"/><line class="cls-1" x1="3232.38" y1="-70.8" x2="908.9" y2="2252.68"/><line class="cls-1" x1="3242.5" y1="-70.8" x2="919.01" y2="2252.68"/><line class="cls-1" x1="3252.62" y1="-70.8" x2="929.13" y2="2252.68"/><line class="cls-1" x1="3262.74" y1="-70.8" x2="939.25" y2="2252.68"/><line class="cls-1" x1="3272.86" y1="-70.8" x2="949.37" y2="2252.68"/><line class="cls-1" x1="3282.97" y1="-70.8" x2="959.49" y2="2252.68"/><line class="cls-1" x1="3293.09" y1="-70.8" x2="969.61" y2="2252.68"/><line class="cls-1" x1="3303.21" y1="-70.8" x2="979.73" y2="2252.68"/><line class="cls-1" x1="3313.33" y1="-70.8" x2="989.85" y2="2252.68"/><line class="cls-1" x1="3323.45" y1="-70.8" x2="999.97" y2="2252.68"/><line class="cls-1" x1="3333.57" y1="-70.8" x2="1010.09" y2="2252.68"/><line class="cls-1" x1="3343.69" y1="-70.8" x2="1020.21" y2="2252.68"/><line class="cls-1" x1="3353.81" y1="-70.8" x2="1030.33" y2="2252.68"/><line class="cls-1" x1="3363.93" y1="-70.8" x2="1040.45" y2="2252.68"/><line class="cls-1" x1="3374.05" y1="-70.8" x2="1050.56" y2="2252.68"/><line class="cls-1" x1="3384.17" y1="-70.8" x2="1060.68" y2="2252.68"/><line class="cls-1" x1="3394.29" y1="-70.8" x2="1070.8" y2="2252.68"/><line class="cls-1" x1="3404.41" y1="-70.8" x2="1080.92" y2="2252.68"/><line class="cls-1" x1="3414.52" y1="-70.8" x2="1091.04" y2="2252.68"/><line class="cls-1" x1="3424.64" y1="-70.8" x2="1101.16" y2="2252.68"/><line class="cls-1" x1="3434.76" y1="-70.8" x2="1111.28" y2="2252.68"/><line class="cls-1" x1="3444.88" y1="-70.8" x2="1121.4" y2="2252.68"/><line class="cls-1" x1="3455" y1="-70.8" x2="1131.52" y2="2252.68"/><line class="cls-1" x1="3465.12" y1="-70.8" x2="1141.64" y2="2252.68"/><line class="cls-1" x1="3475.24" y1="-70.8" x2="1151.76" y2="2252.68"/><line class="cls-1" x1="3485.36" y1="-70.8" x2="1161.88" y2="2252.68"/><line class="cls-1" x1="3495.48" y1="-70.8" x2="1172" y2="2252.68"/><line class="cls-1" x1="3505.6" y1="-70.8" x2="1182.11" y2="2252.68"/><line class="cls-1" x1="3515.72" y1="-70.8" x2="1192.23" y2="2252.68"/><line class="cls-1" x1="3525.84" y1="-70.8" x2="1202.35" y2="2252.68"/><line class="cls-1" x1="3535.96" y1="-70.8" x2="1212.47" y2="2252.68"/><line class="cls-1" x1="3546.07" y1="-70.8" x2="1222.59" y2="2252.68"/><line class="cls-1" x1="3556.19" y1="-70.8" x2="1232.71" y2="2252.68"/><line class="cls-1" x1="3566.31" y1="-70.8" x2="1242.83" y2="2252.68"/><line class="cls-1" x1="3576.43" y1="-70.8" x2="1252.95" y2="2252.68"/><line class="cls-1" x1="3586.55" y1="-70.8" x2="1263.07" y2="2252.68"/><line class="cls-1" x1="3596.67" y1="-70.8" x2="1273.19" y2="2252.68"/><line class="cls-1" x1="3606.79" y1="-70.8" x2="1283.31" y2="2252.68"/><line class="cls-1" x1="3616.91" y1="-70.8" x2="1293.43" y2="2252.68"/><line class="cls-1" x1="3627.03" y1="-70.8" x2="1303.55" y2="2252.68"/><line class="cls-1" x1="3637.15" y1="-70.8" x2="1313.66" y2="2252.68"/><line class="cls-1" x1="3647.27" y1="-70.8" x2="1323.78" y2="2252.68"/><line class="cls-1" x1="3657.39" y1="-70.8" x2="1333.9" y2="2252.68"/><line class="cls-1" x1="3667.51" y1="-70.8" x2="1344.02" y2="2252.68"/><line class="cls-1" x1="3677.62" y1="-70.8" x2="1354.14" y2="2252.68"/><line class="cls-1" x1="3687.74" y1="-70.8" x2="1364.26" y2="2252.68"/><line class="cls-1" x1="3697.86" y1="-70.8" x2="1374.38" y2="2252.68"/><line class="cls-1" x1="3707.98" y1="-70.8" x2="1384.5" y2="2252.68"/><line class="cls-1" x1="3718.1" y1="-70.8" x2="1394.62" y2="2252.68"/><line class="cls-1" x1="3728.22" y1="-70.8" x2="1404.74" y2="2252.68"/><line class="cls-1" x1="3738.34" y1="-70.8" x2="1414.86" y2="2252.68"/><line class="cls-1" x1="3748.46" y1="-70.8" x2="1424.98" y2="2252.68"/><line class="cls-1" x1="3758.58" y1="-70.8" x2="1435.1" y2="2252.68"/><line class="cls-1" x1="3768.7" y1="-70.8" x2="1445.21" y2="2252.68"/><line class="cls-1" x1="3778.82" y1="-70.8" x2="1455.33" y2="2252.68"/><line class="cls-1" x1="3788.94" y1="-70.8" x2="1465.45" y2="2252.68"/><line class="cls-1" x1="3799.06" y1="-70.8" x2="1475.57" y2="2252.68"/><line class="cls-1" x1="3809.17" y1="-70.8" x2="1485.69" y2="2252.68"/><line class="cls-1" x1="3819.29" y1="-70.8" x2="1495.81" y2="2252.68"/><line class="cls-1" x1="3829.41" y1="-70.8" x2="1505.93" y2="2252.68"/><line class="cls-1" x1="3839.53" y1="-70.8" x2="1516.05" y2="2252.68"/><line class="cls-1" x1="3849.65" y1="-70.8" x2="1526.17" y2="2252.68"/><line class="cls-1" x1="3859.77" y1="-70.8" x2="1536.29" y2="2252.68"/><line class="cls-1" x1="3869.89" y1="-70.8" x2="1546.41" y2="2252.68"/><line class="cls-1" x1="3880.01" y1="-70.8" x2="1556.53" y2="2252.68"/><line class="cls-1" x1="3890.13" y1="-70.8" x2="1566.65" y2="2252.68"/><line class="cls-1" x1="3900.25" y1="-70.8" x2="1576.76" y2="2252.68"/><line class="cls-1" x1="3910.37" y1="-70.8" x2="1586.88" y2="2252.68"/><line class="cls-1" x1="3920.49" y1="-70.8" x2="1597" y2="2252.68"/><line class="cls-1" x1="3930.61" y1="-70.8" x2="1607.12" y2="2252.68"/><line class="cls-1" x1="3940.72" y1="-70.8" x2="1617.24" y2="2252.68"/><line class="cls-1" x1="3950.84" y1="-70.8" x2="1627.36" y2="2252.68"/><line class="cls-1" x1="3960.96" y1="-70.8" x2="1637.48" y2="2252.68"/><line class="cls-1" x1="3971.08" y1="-70.8" x2="1647.6" y2="2252.68"/><line class="cls-1" x1="3981.2" y1="-70.8" x2="1657.72" y2="2252.68"/><line class="cls-1" x1="3991.32" y1="-70.8" x2="1667.84" y2="2252.68"/><line class="cls-1" x1="4001.44" y1="-70.8" x2="1677.96" y2="2252.68"/><line class="cls-1" x1="4011.56" y1="-70.8" x2="1688.08" y2="2252.68"/><line class="cls-1" x1="4021.68" y1="-70.8" x2="1698.2" y2="2252.68"/><line class="cls-1" x1="4031.8" y1="-70.8" x2="1708.31" y2="2252.68"/><line class="cls-1" x1="4041.92" y1="-70.8" x2="1718.43" y2="2252.68"/><line class="cls-1" x1="4052.04" y1="-70.8" x2="1728.55" y2="2252.68"/><line class="cls-1" x1="4062.16" y1="-70.8" x2="1738.67" y2="2252.68"/><line class="cls-1" x1="4072.27" y1="-70.8" x2="1748.79" y2="2252.68"/><line class="cls-1" x1="4082.39" y1="-70.8" x2="1758.91" y2="2252.68"/><line class="cls-1" x1="4092.51" y1="-70.8" x2="1769.03" y2="2252.68"/><line class="cls-1" x1="4102.63" y1="-70.8" x2="1779.15" y2="2252.68"/></svg>